<svg width="1460" height="474" viewBox="0 0 1460 474" fill="none" xmlns="http://www.w3.org/2000/svg">
<path d="M1.72847 349.084C13.4177 231.183 107.183 137.418 225.084 125.728C238.497 124.399 249.5 135.454 249.5 149L249.5 349C249.5 362.531 238.531 373.5 225 373.5H25C11.4542 373.5 0.398697 362.497 1.72847 349.084Z" fill="black" stroke="black" stroke-linejoin="round"/>
<path d="M486.12 378C456.787 378 433.987 369.733 417.72 353.2C401.72 336.667 393.187 314.667 392.12 287.2L391.72 270L392.12 252.8C393.187 225.6 401.854 203.733 418.12 187.2C434.387 170.4 457.054 162 486.12 162C515.187 162 537.854 170.4 554.12 187.2C570.387 203.733 579.054 225.6 580.12 252.8C580.387 255.733 580.52 261.467 580.52 270C580.52 278.533 580.387 284.267 580.12 287.2C579.054 314.667 570.387 336.667 554.12 353.2C538.12 369.733 515.454 378 486.12 378ZM486.12 347.2C502.92 347.2 516.12 341.867 525.72 331.2C535.587 320.533 540.92 305.2 541.72 285.2C541.987 282.533 542.12 277.467 542.12 270C542.12 262.533 541.987 257.467 541.72 254.8C540.92 234.8 535.587 219.467 525.72 208.8C516.12 198.133 502.92 192.8 486.12 192.8C469.32 192.8 455.987 198.133 446.12 208.8C436.254 219.467 431.054 234.8 430.52 254.8L430.12 270L430.52 285.2C431.054 305.2 436.254 320.533 446.12 331.2C455.987 341.867 469.32 347.2 486.12 347.2ZM719.586 374C712.653 374 707.719 370.667 704.786 364L630.786 178.4L629.986 174.4C629.986 172 630.786 170 632.386 168.4C633.986 166.8 635.986 166 638.386 166H657.586C662.119 166 665.453 168.267 667.586 172.8L728.386 330.4L789.186 172.8C791.586 168.267 794.786 166 798.786 166H818.386C820.519 166 822.386 166.8 823.986 168.4C825.853 170 826.786 172 826.786 174.4L825.986 178.4L751.586 364C748.653 370.667 743.719 374 736.786 374H719.586ZM968.448 378C940.982 378 918.982 369.6 902.448 352.8C886.182 335.733 877.248 312.533 875.648 283.2L875.248 269.6L875.648 256.4C877.515 227.6 886.582 204.667 902.848 187.6C919.382 170.533 941.115 162 968.048 162C997.648 162 1020.58 171.467 1036.85 190.4C1053.12 209.067 1061.25 234.4 1061.25 266.4V273.2C1061.25 275.867 1060.32 278.133 1058.45 280C1056.85 281.6 1054.72 282.4 1052.05 282.4H913.648V286C914.448 303.333 919.648 318.133 929.248 330.4C939.115 342.4 952.048 348.4 968.048 348.4C980.315 348.4 990.315 346 998.048 341.2C1006.05 336.133 1011.92 330.933 1015.65 325.6C1018.05 322.4 1019.78 320.533 1020.85 320C1022.18 319.2 1024.45 318.8 1027.65 318.8H1047.25C1049.65 318.8 1051.65 319.467 1053.25 320.8C1054.85 322.133 1055.65 324 1055.65 326.4C1055.65 332.267 1051.92 339.333 1044.45 347.6C1037.25 355.867 1026.98 363.067 1013.65 369.2C1000.58 375.067 985.515 378 968.448 378ZM1023.25 254.8V253.6C1023.25 235.2 1018.18 220.267 1008.05 208.8C998.182 197.067 984.848 191.2 968.048 191.2C951.248 191.2 937.915 197.067 928.048 208.8C918.448 220.267 913.648 235.2 913.648 253.6V254.8H1023.25ZM1142.28 374C1139.61 374 1137.34 373.2 1135.48 371.6C1133.88 369.733 1133.08 367.467 1133.08 364.8V175.6C1133.08 172.933 1133.88 170.667 1135.48 168.8C1137.34 166.933 1139.61 166 1142.28 166H1160.68C1163.34 166 1165.61 166.933 1167.48 168.8C1169.34 170.667 1170.28 172.933 1170.28 175.6V193.2C1181.21 175.067 1199.88 166 1226.28 166H1241.88C1244.54 166 1246.68 166.933 1248.28 168.8C1250.14 170.4 1251.08 172.533 1251.08 175.2V191.6C1251.08 194.267 1250.14 196.4 1248.28 198C1246.68 199.6 1244.54 200.4 1241.88 200.4H1217.88C1203.48 200.4 1192.14 204.667 1183.88 213.2C1175.61 221.467 1171.48 232.8 1171.48 247.2V364.8C1171.48 367.467 1170.54 369.733 1168.68 371.6C1166.81 373.2 1164.54 374 1161.88 374H1142.28ZM1390.23 374C1348.1 374 1327.03 350.533 1327.03 303.6V198H1295.83C1293.16 198 1290.9 197.2 1289.03 195.6C1287.43 193.733 1286.63 191.467 1286.63 188.8V175.2C1286.63 172.533 1287.43 170.4 1289.03 168.8C1290.9 166.933 1293.16 166 1295.83 166H1327.03V99.2C1327.03 96.5333 1327.83 94.4 1329.43 92.8C1331.3 90.9333 1333.56 90 1336.23 90H1355.03C1357.7 90 1359.83 90.9333 1361.43 92.8C1363.3 94.4 1364.23 96.5333 1364.23 99.2V166H1413.83C1416.5 166 1418.63 166.933 1420.23 168.8C1422.1 170.4 1423.03 172.533 1423.03 175.2V188.8C1423.03 191.467 1422.1 193.733 1420.23 195.6C1418.63 197.2 1416.5 198 1413.83 198H1364.23V300.8C1364.23 314.133 1366.5 324.267 1371.03 331.2C1375.56 337.867 1383.03 341.2 1393.43 341.2H1417.83C1420.5 341.2 1422.63 342.133 1424.23 344C1426.1 345.6 1427.03 347.733 1427.03 350.4V364.8C1427.03 367.467 1426.1 369.733 1424.23 371.6C1422.63 373.2 1420.5 374 1417.83 374H1390.23Z" fill="black"/>
</svg>
