<svg width="1440" height="474" viewBox="0 0 1440 474" fill="none" xmlns="http://www.w3.org/2000/svg">
<path d="M25 373.5C11.4542 373.5 0.398697 362.497 1.72847 349.084C13.4177 231.183 107.183 137.418 225.084 125.728C238.497 124.399 249.5 135.454 249.5 149L249.5 349C249.5 362.531 238.531 373.5 225 373.5H25Z" fill="black" stroke="black" stroke-linejoin="round"/>
<path d="M506.12 378C476.787 378 453.987 369.733 437.72 353.2C421.72 336.667 413.187 314.667 412.12 287.2L411.72 270L412.12 252.8C413.187 225.6 421.854 203.733 438.12 187.2C454.387 170.4 477.054 162 506.12 162C535.187 162 557.854 170.4 574.12 187.2C590.387 203.733 599.054 225.6 600.12 252.8C600.387 255.733 600.52 261.467 600.52 270C600.52 278.533 600.387 284.267 600.12 287.2C599.054 314.667 590.387 336.667 574.12 353.2C558.12 369.733 535.454 378 506.12 378ZM506.12 347.2C522.92 347.2 536.12 341.867 545.72 331.2C555.587 320.533 560.92 305.2 561.72 285.2C561.987 282.533 562.12 277.467 562.12 270C562.12 262.533 561.987 257.467 561.72 254.8C560.92 234.8 555.587 219.467 545.72 208.8C536.12 198.133 522.92 192.8 506.12 192.8C489.32 192.8 475.987 198.133 466.12 208.8C456.254 219.467 451.054 234.8 450.52 254.8L450.12 270L450.52 285.2C451.054 305.2 456.254 320.533 466.12 331.2C475.987 341.867 489.32 347.2 506.12 347.2ZM731.586 374C724.653 374 719.719 370.667 716.786 364L642.786 178.4L641.986 174.4C641.986 172 642.786 170 644.386 168.4C645.986 166.8 647.986 166 650.386 166H669.586C674.119 166 677.453 168.267 679.586 172.8L740.386 330.4L801.186 172.8C803.586 168.267 806.786 166 810.786 166H830.386C832.519 166 834.386 166.8 835.986 168.4C837.853 170 838.786 172 838.786 174.4L837.986 178.4L763.586 364C760.653 370.667 755.719 374 748.786 374H731.586ZM972.448 378C944.982 378 922.982 369.6 906.448 352.8C890.182 335.733 881.248 312.533 879.648 283.2L879.248 269.6L879.648 256.4C881.515 227.6 890.582 204.667 906.848 187.6C923.382 170.533 945.115 162 972.048 162C1001.65 162 1024.58 171.467 1040.85 190.4C1057.12 209.067 1065.25 234.4 1065.25 266.4V273.2C1065.25 275.867 1064.32 278.133 1062.45 280C1060.85 281.6 1058.72 282.4 1056.05 282.4H917.648V286C918.448 303.333 923.648 318.133 933.248 330.4C943.115 342.4 956.048 348.4 972.048 348.4C984.315 348.4 994.315 346 1002.05 341.2C1010.05 336.133 1015.92 330.933 1019.65 325.6C1022.05 322.4 1023.78 320.533 1024.85 320C1026.18 319.2 1028.45 318.8 1031.65 318.8H1051.25C1053.65 318.8 1055.65 319.467 1057.25 320.8C1058.85 322.133 1059.65 324 1059.65 326.4C1059.65 332.267 1055.92 339.333 1048.45 347.6C1041.25 355.867 1030.98 363.067 1017.65 369.2C1004.58 375.067 989.515 378 972.448 378ZM1027.25 254.8V253.6C1027.25 235.2 1022.18 220.267 1012.05 208.8C1002.18 197.067 988.848 191.2 972.048 191.2C955.248 191.2 941.915 197.067 932.048 208.8C922.448 220.267 917.648 235.2 917.648 253.6V254.8H1027.25ZM1138.28 374C1135.61 374 1133.34 373.2 1131.48 371.6C1129.88 369.733 1129.08 367.467 1129.08 364.8V175.6C1129.08 172.933 1129.88 170.667 1131.48 168.8C1133.34 166.933 1135.61 166 1138.28 166H1156.68C1159.34 166 1161.61 166.933 1163.48 168.8C1165.34 170.667 1166.28 172.933 1166.28 175.6V193.2C1177.21 175.067 1195.88 166 1222.28 166H1237.88C1240.54 166 1242.68 166.933 1244.28 168.8C1246.14 170.4 1247.08 172.533 1247.08 175.2V191.6C1247.08 194.267 1246.14 196.4 1244.28 198C1242.68 199.6 1240.54 200.4 1237.88 200.4H1213.88C1199.48 200.4 1188.14 204.667 1179.88 213.2C1171.61 221.467 1167.48 232.8 1167.48 247.2V364.8C1167.48 367.467 1166.54 369.733 1164.68 371.6C1162.81 373.2 1160.54 374 1157.88 374H1138.28ZM1378.23 374C1336.1 374 1315.03 350.533 1315.03 303.6V198H1283.83C1281.16 198 1278.9 197.2 1277.03 195.6C1275.43 193.733 1274.63 191.467 1274.63 188.8V175.2C1274.63 172.533 1275.43 170.4 1277.03 168.8C1278.9 166.933 1281.16 166 1283.83 166H1315.03V99.2C1315.03 96.5333 1315.83 94.4 1317.43 92.8C1319.3 90.9333 1321.56 90 1324.23 90H1343.03C1345.7 90 1347.83 90.9333 1349.43 92.8C1351.3 94.4 1352.23 96.5333 1352.23 99.2V166H1401.83C1404.5 166 1406.63 166.933 1408.23 168.8C1410.1 170.4 1411.03 172.533 1411.03 175.2V188.8C1411.03 191.467 1410.1 193.733 1408.23 195.6C1406.63 197.2 1404.5 198 1401.83 198H1352.23V300.8C1352.23 314.133 1354.5 324.267 1359.03 331.2C1363.56 337.867 1371.03 341.2 1381.43 341.2H1405.83C1408.5 341.2 1410.63 342.133 1412.23 344C1414.1 345.6 1415.03 347.733 1415.03 350.4V364.8C1415.03 367.467 1414.1 369.733 1412.23 371.6C1410.63 373.2 1408.5 374 1405.83 374H1378.23Z" fill="black"/>
</svg>
