<svg width="1475" height="600" viewBox="0 0 1475 600" fill="none" xmlns="http://www.w3.org/2000/svg">
<path d="M1.72847 395.084C13.4177 277.183 107.183 183.418 225.084 171.728C238.497 170.399 249.5 181.454 249.5 195L249.5 395C249.5 408.531 238.531 419.5 225 419.5H25C11.4542 419.5 0.398697 408.497 1.72847 395.084Z" fill="black" stroke="black" stroke-linejoin="round"/>
<path d="M525.717 423.6C504.917 423.6 486.117 418.933 469.317 409.6C452.517 400 439.317 386.667 429.717 369.6C420.117 352.267 415.317 332.267 415.317 309.6C415.317 287.2 420.251 267.333 430.117 250C439.984 232.667 453.451 219.333 470.517 210C487.584 200.667 506.651 196 527.717 196C548.784 196 567.851 200.667 584.917 210C601.984 219.333 615.451 232.667 625.317 250C635.184 267.333 640.117 287.2 640.117 309.6C640.117 332 635.051 351.867 624.917 369.2C614.784 386.533 600.917 400 583.317 409.6C565.984 418.933 546.784 423.6 525.717 423.6ZM525.717 385.2C537.451 385.2 548.384 382.267 558.517 376.4C568.917 370.533 577.317 362 583.717 350.8C590.117 339.333 593.317 325.6 593.317 309.6C593.317 293.6 590.251 280 584.117 268.8C577.984 257.333 569.851 248.8 559.717 243.2C549.584 237.333 538.651 234.4 526.917 234.4C515.184 234.4 504.384 237.333 494.517 243.2C484.651 248.8 476.651 257.333 470.517 268.8C464.651 280 461.717 293.6 461.717 309.6C461.717 325.6 464.517 339.333 470.117 350.8C475.984 362.267 483.717 370.933 493.317 376.8C503.184 382.4 513.984 385.2 525.717 385.2ZM778.395 379.2L840.795 199.6H889.995L805.995 420H750.795L667.195 199.6H715.995L778.395 379.2ZM1133.66 303.6C1133.66 311.333 1133.13 318.533 1132.06 325.2H963.264C964.597 343.6 971.131 358.267 982.864 369.2C994.597 379.867 1009.13 385.2 1026.46 385.2C1051 385.2 1068.33 374.933 1078.46 354.4H1127.66C1121 374.667 1108.86 391.333 1091.26 404.4C1073.93 417.2 1052.33 423.6 1026.46 423.6C1005.4 423.6 986.464 418.933 969.664 409.6C953.131 400 940.064 386.667 930.464 369.6C921.131 352.267 916.464 332.267 916.464 309.6C916.464 286.933 920.997 267.067 930.064 250C939.397 232.667 952.331 219.333 968.864 210C985.664 200.667 1004.86 196 1026.46 196C1047.26 196 1065.8 200.533 1082.06 209.6C1098.33 218.667 1111 231.333 1120.06 247.6C1129.13 263.867 1133.66 282.533 1133.66 303.6ZM1086.06 292.4C1085.8 274.533 1079.8 260.4 1068.06 250C1056.6 239.6 1042.06 234.4 1024.46 234.4C1008.46 234.4 994.731 239.6 983.264 250C972.064 260.4 965.531 274.533 963.664 292.4H1086.06ZM1232.14 238C1238.81 224.667 1247.61 214.4 1258.54 207.2C1269.74 199.733 1282.94 196 1298.14 196V243.2H1286.54C1268.67 243.2 1255.07 247.733 1245.74 256.8C1236.67 265.867 1232.14 281.6 1232.14 304V420H1186.54V199.6H1232.14V238ZM1401.25 236.8V358.8C1401.25 367.067 1403.12 373.067 1406.85 376.8C1410.85 380.267 1417.52 382 1426.85 382H1454.85V420H1418.85C1398.32 420 1382.59 415.2 1371.65 405.6C1360.72 396 1355.25 380.4 1355.25 358.8V236.8H1329.25V199.6H1355.25V144.8H1401.25V199.6H1454.85V236.8H1401.25Z" fill="black"/>
</svg>
